PathFileType	4	(X/Y/Z)	 s09c0401.trc
DataRate	CameraRate	NumFrames	NumMarkers	Units	OrigDataRate	OrigDataStartFrame	OrigNumFrames
200	200	4	50	mm	200	1501	2000
Frame#	Time	racr			lacr			c7			jug			rlel			rdr			llel			ldr			s2			lic			ric			lasi			rasi			rpsi			lpsi			rgt			lgt			rth1			rth2			rth3			rth4			rlfc			rmfc			rsh1			rsh2			rsh3			rsh4			rlmal			rmmal			rcal			rtoe			rmt5			lth1			lth2			lth4			lth3			llfc			lmfc			llmal			lmmal			lcal			lmt5			lsh1			lsh2			lsh3			lsh4			ltoe			SBIKE			LBIKE			RBIKE			
		X1	Y1	Z1	X2	Y2	Z2	X3	Y3	Z3	X4	Y4	Z4	X5	Y5	Z5	X6	Y6	Z6	X7	Y7	Z7	X8	Y8	Z8	X9	Y9	Z9	X10	Y10	Z10	X11	Y11	Z11	X12	Y12	Z12	X13	Y13	Z13	X14	Y14	Z14	X15	Y15	Z15	X16	Y16	Z16	X17	Y17	Z17	X18	Y18	Z18	X19	Y19	Z19	X20	Y20	Z20	X21	Y21	Z21	X22	Y22	Z22	X23	Y23	Z23	X24	Y24	Z24	X25	Y25	Z25	X26	Y26	Z26	X27	Y27	Z27	X28	Y28	Z28	X29	Y29	Z29	X30	Y30	Z30	X31	Y31	Z31	X32	Y32	Z32	X33	Y33	Z33	X34	Y34	Z34	X35	Y35	Z35	X36	Y36	Z36	X37	Y37	Z37	X38	Y38	Z38	X39	Y39	Z39	X40	Y40	Z40	X41	Y41	Z41	X42	Y42	Z42	X43	Y43	Z43	X44	Y44	Z44	X45	Y45	Z45	X46	Y46	Z46	X47	Y47	Z47	X48	Y48	Z48	X49	Y49	Z49	X50	Y50	Z50	
1501	7.5050	741.564065	1236.563848	-44.559939	756.093728	1195.010709	-411.692852	759.264385	1302.419610	-227.990668	741.706169	1162.658154	-224.489546	613.608653	1053.395869	84.190743	652.771801	861.108512	-51.341345	580.348855	1058.348551	-575.919264	623.251270	861.907703	-441.140938	263.418902	1177.780177	-255.650048	399.586456	1125.372580	-393.859255	393.105704	1158.375550	-99.239351	421.751900	1062.352145	-360.292681	417.530653	1092.950866	-114.768326	296.297019	1210.757434	-196.511613	304.125599	1199.441145	-305.973558	347.646937	1034.291120	-47.771538	321.345033	997.217664	-416.944319	445.153123	932.309951	-55.260547	512.919974	880.232733	-75.395337	545.505709	798.793443	-83.100783	531.653352	897.728654	-101.219313	568.314334	701.408582	-118.162331	538.846914	693.542378	-213.383464	468.913579	678.274265	-83.919892	396.265806	626.119240	-93.832171	309.455139	617.166883	-88.138285	407.047260	602.314243	-124.018771	214.488497	578.719036	-83.833532	222.557684	584.515991	-160.932335	134.446709	617.131441	-121.686820	298.226630	408.881361	-128.120189	233.741176	461.325526	-62.574935	363.569451	863.811400	-413.842170	411.694752	794.513787	-404.138843	446.601097	805.982723	-393.378132	418.254905	704.332618	-395.320671	434.344089	612.371011	-379.012480	433.810126	594.588730	-284.174273	294.128221	273.091799	-405.056975	313.220364	275.327733	-333.187639	222.013708	248.761669	-370.584410	377.384326	171.269414	-432.618485	388.952642	522.589216	-407.431332	381.435475	436.379850	-403.042750	330.938047	363.499786	-405.650906	405.805667	428.383964	-371.845489	470.853157	170.193937	-363.441407	-64.925110	853.634717	-239.310702	20.758966	84.746016	-441.905979	21.109838	84.068057	-43.847398	
1502	7.5100	741.182386	1236.499537	-42.593979	756.630510	1195.905399	-409.159319	758.734656	1302.480530	-225.624767	741.497871	1162.902978	-222.161238	613.475114	1052.492903	85.070160	652.676591	861.246797	-51.119768	581.225587	1059.235148	-574.447911	623.914450	861.981298	-440.855834	263.699323	1176.905737	-258.479360	401.257884	1124.313121	-394.528898	391.783670	1159.248301	-100.339511	422.858032	1061.099790	-360.464428	416.943661	1093.866342	-114.756583	295.750298	1210.531481	-199.164767	305.172666	1197.813920	-308.589494	347.086051	1036.108401	-48.685795	322.018046	995.064127	-417.020975	447.193168	936.117964	-55.854370	516.132721	885.484051	-75.880444	550.664530	804.921175	-83.236343	534.398200	903.305357	-101.880987	575.446936	707.214913	-117.997834	546.235249	699.058129	-213.579382	476.287303	683.761679	-84.090716	403.593465	631.739228	-94.105023	316.758505	622.789896	-88.301709	414.268444	608.545902	-124.033391	221.716605	584.056772	-84.076999	229.527817	590.010307	-161.144316	140.839575	621.328712	-121.418724	308.262583	416.240605	-128.176949	242.875022	467.284635	-62.641215	361.368576	861.610257	-414.032904	407.755124	790.955510	-403.923525	442.612722	801.740978	-392.675086	412.002051	700.752231	-395.173725	426.184808	608.848925	-378.857913	424.572047	591.034461	-283.586502	286.730655	269.243923	-404.437696	306.213758	270.911028	-333.080572	214.994340	246.622774	-370.471177	368.704582	165.903062	-432.416774	380.672418	519.114742	-407.456980	373.658342	432.876387	-403.154582	323.415475	359.719740	-405.700543	398.060849	425.112622	-372.033835	462.056899	162.819642	-363.184435	-64.956611	853.624400	-239.292769	20.750518	84.750758	-441.902059	21.095414	84.049896	-43.829370	
1503	7.5150	740.690400	1236.770630	-40.441748	757.078681	1196.815374	-406.577089	758.080500	1302.691058	-222.797909	741.291343	1162.970857	-219.828984	613.396508	1051.794076	86.592569	653.033125	861.471420	-51.446471	582.028276	1060.130529	-572.864613	624.499308	861.941478	-440.677408	263.920347	1176.026693	-261.158158	402.923723	1123.350792	-395.098936	390.455567	1160.184486	-101.433561	423.984334	1059.929703	-360.692719	416.370795	1095.017585	-114.606275	294.941841	1210.432062	-201.835712	305.543416	1196.900013	-310.746545	346.555202	1038.004863	-49.576827	322.772495	993.075638	-417.261924	449.232467	940.117853	-56.602286	519.083795	890.800530	-76.352122	555.483482	810.899030	-83.192136	537.022897	908.833083	-102.447485	582.431123	713.239664	-117.934268	553.390129	704.894830	-214.068034	483.470021	689.187199	-84.221620	410.838145	637.119171	-94.383916	324.017922	627.918061	-88.478744	421.460031	614.148817	-124.476364	228.978663	588.802273	-84.291141	236.562764	594.862895	-161.366175	147.239657	625.211763	-121.755307	318.640870	423.127111	-128.270576	252.149818	472.897836	-62.776652	359.376023	859.720474	-414.333329	403.967543	787.868068	-403.927084	438.531727	797.687590	-391.711585	405.888300	697.643102	-395.425627	418.137545	605.672911	-378.942435	415.759701	587.966145	-283.399636	279.424576	266.253046	-404.500592	299.294870	267.723201	-333.667360	207.836380	245.157898	-370.347870	359.699511	161.087181	-432.215349	372.486404	516.070721	-407.657946	365.785336	429.837108	-403.386096	315.901380	356.451447	-405.817002	390.326275	422.095912	-372.252305	452.913094	155.892627	-362.904525	-64.977154	853.633394	-239.261975	20.756217	84.754872	-441.903918	21.095000	84.066053	-43.833875	
1504	7.5200	740.225030	1236.863012	-38.300133	757.543634	1197.737957	-403.926950	757.486798	1302.961379	-220.062814	741.105069	1162.870368	-217.506060	613.074879	1051.193165	88.201095	653.054103	861.524871	-51.339563	582.826230	1061.189383	-571.291673	625.027287	861.930450	-440.464001	264.109584	1175.111611	-263.930176	404.577400	1122.486635	-395.574422	389.109373	1161.141199	-102.427693	425.196338	1058.739304	-360.664588	415.718228	1096.366974	-114.354574	294.453673	1209.424546	-205.347970	306.455903	1195.587341	-313.233315	346.033628	1039.832539	-50.478613	323.771742	991.164020	-417.798372	450.990692	944.088293	-57.109285	521.919227	896.063894	-76.914116	559.018942	817.448932	-81.834249	539.571740	914.387412	-103.011359	589.190914	719.362387	-117.744663	560.369594	710.794893	-214.646524	490.303333	694.687278	-84.340155	417.942038	642.225672	-94.616898	331.170806	632.563065	-88.707801	428.701230	619.551936	-124.830311	236.281810	592.869970	-84.604671	243.571549	599.078779	-161.568840	153.684690	628.031931	-121.736965	329.237153	429.924074	-128.089914	262.268787	477.873165	-62.444443	357.463474	858.027260	-414.673083	400.340266	785.195021	-404.084065	434.872336	794.153053	-391.397589	400.098204	694.867065	-395.892268	410.314449	602.859035	-379.348609	407.327726	585.272565	-283.508027	271.994733	263.630857	-404.359732	292.372380	264.853574	-334.086349	200.573465	244.400653	-370.204475	350.432044	156.837244	-432.013235	364.451026	513.439661	-408.020109	358.054004	427.232732	-403.752788	308.282913	353.716244	-406.093317	382.722762	419.534956	-372.793031	443.515152	149.546494	-362.825716	-64.985329	853.633299	-239.220021	20.751300	84.773224	-441.904032	21.073570	84.065830	-43.836847	
